<?xml version="1.0" standalone="no"?>
<!DOCTYPE svg PUBLIC "-//W3C//DTD SVG 20010904//EN"
 "http://www.w3.org/TR/2001/REC-SVG-20010904/DTD/svg10.dtd">
<svg version="1.0" xmlns="http://www.w3.org/2000/svg"
 width="428.000000pt" height="428.000000pt" viewBox="0 0 428.000000 428.000000"
 preserveAspectRatio="xMidYMid meet">
<metadata>
Created by potrace 1.14, written by Peter Selinger 2001-2017
</metadata>
<g transform="translate(0.000000,428.000000) scale(0.100000,-0.100000)"
fill="#000000" stroke="none">
<path d="M2067 4275 c-1 -1 -46 -5 -101 -9 -54 -3 -101 -8 -105 -10 -3 -2 -30
-6 -59 -10 -228 -27 -559 -152 -791 -298 -202 -127 -422 -326 -546 -493 -17
-22 -33 -42 -36 -45 -20 -16 -145 -222 -191 -315 -105 -211 -182 -452 -203
-635 -3 -25 -9 -76 -14 -115 -9 -70 -7 -398 2 -445 3 -14 8 -43 11 -65 10 -75
18 -120 32 -180 8 -33 17 -70 19 -82 15 -68 85 -247 145 -370 57 -116 201
-352 229 -373 3 -3 24 -27 45 -55 63 -81 250 -259 350 -334 372 -280 818 -432
1266 -434 102 0 298 11 309 17 3 2 33 7 66 11 154 17 399 97 590 190 374 183
678 463 892 820 159 266 262 570 291 860 9 93 9 381 -1 475 -58 555 -363 1097
-812 1446 -369 286 -801 436 -1288 448 -53 1 -98 2 -100 1z m185 -240 c15 -9
122 -106 308 -280 41 -39 97 -90 124 -115 27 -25 56 -52 65 -61 9 -8 86 -80
171 -159 85 -79 212 -197 282 -263 70 -65 136 -126 146 -135 17 -15 94 -87
336 -312 125 -117 127 -119 117 -139 -9 -16 -27 -18 -194 -18 -101 0 -193 -4
-205 -7 -12 -4 -31 -21 -43 -37 -21 -29 -21 -39 -23 -459 l-1 -430 -28 -27
-27 -28 -373 -3 c-258 -2 -380 1 -399 9 -60 25 -60 24 -60 451 0 337 3 392 16
413 29 43 51 48 226 48 253 0 245 -9 246 266 1 113 -2 216 -7 228 -18 50 -49
57 -234 58 -184 1 -209 7 -235 56 -8 13 -12 117 -12 302 -1 306 -2 314 -57
341 -35 17 -416 15 -448 -2 -44 -24 -47 -42 -48 -337 -1 -154 -4 -289 -8 -300
-4 -11 -19 -29 -34 -39 -23 -17 -46 -20 -183 -21 -173 -1 -199 -9 -217 -62 -5
-15 -9 -116 -8 -224 1 -223 6 -241 72 -258 21 -5 95 -9 165 -9 135 1 174 -8
198 -45 19 -30 22 -773 3 -817 -25 -60 -21 -59 -459 -60 -284 -1 -407 2 -425
10 -57 26 -57 28 -57 486 1 300 -3 427 -11 442 -23 44 -54 50 -249 49 -188 0
-210 4 -197 39 3 11 101 100 216 199 116 99 220 189 233 200 55 48 150 131
160 140 10 9 132 114 196 169 61 51 245 211 250 216 3 3 34 30 70 60 36 30 67
57 70 60 3 3 70 62 150 130 80 69 147 127 150 130 35 35 154 133 175 144 29
15 71 15 97 1z m-1737 -2410 c33 -8 188 -43 345 -79 429 -98 913 -208 930
-211 8 -2 53 -13 100 -24 47 -11 97 -22 110 -24 14 -3 45 -10 70 -17 86 -23
182 -15 385 35 105 25 244 59 310 75 66 16 188 45 270 65 210 50 533 128 705
171 210 52 233 47 234 -48 0 -53 -11 -213 -19 -276 -6 -47 -40 -97 -78 -115
-23 -11 -1459 -426 -1567 -453 -8 -2 -31 -7 -50 -12 -75 -18 -152 -3 -652 133
-277 75 -642 174 -813 221 -402 109 -386 103 -417 132 -44 40 -46 52 -63 313
-7 105 -7 106 19 126 28 22 44 21 181 -12z"/>
</g>
</svg>
